%TF.GenerationSoftware,KiCad,Pcbnew,9.0.2*%
%TF.CreationDate,2025-05-30T13:52:52-06:00*%
%TF.ProjectId,HBridge,48427269-6467-4652-9e6b-696361645f70,rev?*%
%TF.SameCoordinates,Original*%
%TF.FileFunction,Copper,L2,Bot*%
%TF.FilePolarity,Positive*%
%FSLAX46Y46*%
G04 Gerber Fmt 4.6, Leading zero omitted, Abs format (unit mm)*
G04 Created by KiCad (PCBNEW 9.0.2) date 2025-05-30 13:52:52*
%MOMM*%
%LPD*%
G01*
G04 APERTURE LIST*
%TA.AperFunction,ComponentPad*%
%ADD10C,5.600000*%
%TD*%
%TA.AperFunction,ComponentPad*%
%ADD11R,1.700000X1.700000*%
%TD*%
%TA.AperFunction,ComponentPad*%
%ADD12C,1.700000*%
%TD*%
%TA.AperFunction,ViaPad*%
%ADD13C,0.600000*%
%TD*%
%TA.AperFunction,Conductor*%
%ADD14C,0.800000*%
%TD*%
G04 APERTURE END LIST*
D10*
%TO.P,H4,1,1*%
%TO.N,GND*%
X126000000Y-126000000D03*
%TD*%
%TO.P,H3,1,1*%
%TO.N,GND*%
X104000000Y-126000000D03*
%TD*%
%TO.P,H2,1,1*%
%TO.N,GND*%
X126000000Y-104000000D03*
%TD*%
%TO.P,H1,1,1*%
%TO.N,GND*%
X104000000Y-104000000D03*
%TD*%
D11*
%TO.P,J2,1,Pin_1*%
%TO.N,+9V*%
X120000000Y-108650000D03*
D12*
%TO.P,J2,2,Pin_2*%
%TO.N,GND*%
X120000000Y-111190000D03*
%TO.P,J2,3,Pin_3*%
%TO.N,MTR_EN1*%
X120000000Y-113730000D03*
%TO.P,J2,4,Pin_4*%
%TO.N,MTR_EN2*%
X120000000Y-116270000D03*
%TO.P,J2,5,Pin_5*%
%TO.N,MTR1*%
X120000000Y-118810000D03*
%TO.P,J2,6,Pin_6*%
%TO.N,MTR2*%
X120000000Y-121350000D03*
%TD*%
D11*
%TO.P,J1,1,Pin_1*%
%TO.N,+9V*%
X110000000Y-108650000D03*
D12*
%TO.P,J1,2,Pin_2*%
%TO.N,GND*%
X110000000Y-111190000D03*
%TO.P,J1,3,Pin_3*%
%TO.N,MTR_EN1*%
X110000000Y-113730000D03*
%TO.P,J1,4,Pin_4*%
%TO.N,MTR_EN2*%
X110000000Y-116270000D03*
%TO.P,J1,5,Pin_5*%
%TO.N,MTR1*%
X110000000Y-118810000D03*
%TO.P,J1,6,Pin_6*%
%TO.N,MTR2*%
X110000000Y-121350000D03*
%TD*%
D13*
%TO.N,MTR_EN2*%
X123300000Y-118000000D03*
%TD*%
D14*
%TO.N,MTR_EN2*%
X120000000Y-116270000D02*
X121570000Y-116270000D01*
X121570000Y-116270000D02*
X123300000Y-118000000D01*
%TO.N,MTR2*%
X110000000Y-121350000D02*
X120000000Y-121350000D01*
%TO.N,MTR1*%
X110000000Y-118810000D02*
X120000000Y-118810000D01*
%TO.N,MTR_EN2*%
X110000000Y-116270000D02*
X120000000Y-116270000D01*
%TO.N,MTR_EN1*%
X110000000Y-113730000D02*
X120000000Y-113730000D01*
%TO.N,+9V*%
X110000000Y-108650000D02*
X120000000Y-108650000D01*
%TD*%
%TA.AperFunction,Conductor*%
%TO.N,GND*%
G36*
X118615599Y-109570185D02*
G01*
X118661354Y-109622989D01*
X118664742Y-109631167D01*
X118706202Y-109742328D01*
X118706206Y-109742335D01*
X118792452Y-109857544D01*
X118792455Y-109857547D01*
X118907664Y-109943793D01*
X118907671Y-109943797D01*
X118952618Y-109960561D01*
X119042517Y-109994091D01*
X119102127Y-110000500D01*
X119112685Y-110000499D01*
X119179723Y-110020179D01*
X119200372Y-110036818D01*
X119870591Y-110707037D01*
X119807007Y-110724075D01*
X119692993Y-110789901D01*
X119599901Y-110882993D01*
X119534075Y-110997007D01*
X119517037Y-111060591D01*
X118884728Y-110428282D01*
X118884727Y-110428282D01*
X118845380Y-110482439D01*
X118748904Y-110671782D01*
X118683242Y-110873869D01*
X118683242Y-110873872D01*
X118650000Y-111083753D01*
X118650000Y-111296246D01*
X118683242Y-111506127D01*
X118683242Y-111506130D01*
X118748904Y-111708217D01*
X118845375Y-111897550D01*
X118884728Y-111951716D01*
X119517037Y-111319408D01*
X119534075Y-111382993D01*
X119599901Y-111497007D01*
X119692993Y-111590099D01*
X119807007Y-111655925D01*
X119870590Y-111672962D01*
X119238282Y-112305269D01*
X119238282Y-112305270D01*
X119292452Y-112344626D01*
X119292451Y-112344626D01*
X119301495Y-112349234D01*
X119352292Y-112397208D01*
X119369087Y-112465029D01*
X119346550Y-112531164D01*
X119301499Y-112570202D01*
X119292182Y-112574949D01*
X119120213Y-112699890D01*
X119120209Y-112699894D01*
X119026923Y-112793181D01*
X118965600Y-112826666D01*
X118939242Y-112829500D01*
X111060758Y-112829500D01*
X110993719Y-112809815D01*
X110973077Y-112793181D01*
X110879786Y-112699890D01*
X110707817Y-112574949D01*
X110698504Y-112570204D01*
X110647707Y-112522230D01*
X110630912Y-112454409D01*
X110653449Y-112388274D01*
X110698507Y-112349232D01*
X110707555Y-112344622D01*
X110761716Y-112305270D01*
X110761717Y-112305270D01*
X110129408Y-111672962D01*
X110192993Y-111655925D01*
X110307007Y-111590099D01*
X110400099Y-111497007D01*
X110465925Y-111382993D01*
X110482962Y-111319409D01*
X111115270Y-111951717D01*
X111115270Y-111951716D01*
X111154622Y-111897554D01*
X111251095Y-111708217D01*
X111316757Y-111506130D01*
X111316757Y-111506127D01*
X111350000Y-111296246D01*
X111350000Y-111083753D01*
X111316757Y-110873872D01*
X111316757Y-110873869D01*
X111251095Y-110671782D01*
X111154624Y-110482449D01*
X111115270Y-110428282D01*
X111115269Y-110428282D01*
X110482962Y-111060590D01*
X110465925Y-110997007D01*
X110400099Y-110882993D01*
X110307007Y-110789901D01*
X110192993Y-110724075D01*
X110129409Y-110707037D01*
X110799627Y-110036818D01*
X110860950Y-110003333D01*
X110887307Y-110000499D01*
X110897872Y-110000499D01*
X110957483Y-109994091D01*
X111092331Y-109943796D01*
X111207546Y-109857546D01*
X111293796Y-109742331D01*
X111301149Y-109722615D01*
X111335258Y-109631167D01*
X111377129Y-109575233D01*
X111442593Y-109550816D01*
X111451440Y-109550500D01*
X118548560Y-109550500D01*
X118615599Y-109570185D01*
G37*
%TD.AperFunction*%
%TA.AperFunction,Conductor*%
G36*
X129442539Y-100520185D02*
G01*
X129488294Y-100572989D01*
X129499500Y-100624500D01*
X129499500Y-129375500D01*
X129479815Y-129442539D01*
X129427011Y-129488294D01*
X129375500Y-129499500D01*
X100624500Y-129499500D01*
X100557461Y-129479815D01*
X100511706Y-129427011D01*
X100500500Y-129375500D01*
X100500500Y-107752135D01*
X108649500Y-107752135D01*
X108649500Y-109547870D01*
X108649501Y-109547876D01*
X108655908Y-109607483D01*
X108706202Y-109742328D01*
X108706206Y-109742335D01*
X108792452Y-109857544D01*
X108792455Y-109857547D01*
X108907664Y-109943793D01*
X108907671Y-109943797D01*
X108952618Y-109960561D01*
X109042517Y-109994091D01*
X109102127Y-110000500D01*
X109112685Y-110000499D01*
X109179723Y-110020179D01*
X109200372Y-110036818D01*
X109870591Y-110707037D01*
X109807007Y-110724075D01*
X109692993Y-110789901D01*
X109599901Y-110882993D01*
X109534075Y-110997007D01*
X109517037Y-111060591D01*
X108884728Y-110428282D01*
X108884727Y-110428282D01*
X108845380Y-110482439D01*
X108748904Y-110671782D01*
X108683242Y-110873869D01*
X108683242Y-110873872D01*
X108650000Y-111083753D01*
X108650000Y-111296246D01*
X108683242Y-111506127D01*
X108683242Y-111506130D01*
X108748904Y-111708217D01*
X108845375Y-111897550D01*
X108884728Y-111951716D01*
X109517037Y-111319408D01*
X109534075Y-111382993D01*
X109599901Y-111497007D01*
X109692993Y-111590099D01*
X109807007Y-111655925D01*
X109870590Y-111672962D01*
X109238282Y-112305269D01*
X109238282Y-112305270D01*
X109292452Y-112344626D01*
X109292451Y-112344626D01*
X109301495Y-112349234D01*
X109352292Y-112397208D01*
X109369087Y-112465029D01*
X109346550Y-112531164D01*
X109301499Y-112570202D01*
X109292182Y-112574949D01*
X109120213Y-112699890D01*
X108969890Y-112850213D01*
X108844951Y-113022179D01*
X108748444Y-113211585D01*
X108682753Y-113413760D01*
X108649500Y-113623713D01*
X108649500Y-113836286D01*
X108682753Y-114046239D01*
X108748444Y-114248414D01*
X108844951Y-114437820D01*
X108969890Y-114609786D01*
X109120213Y-114760109D01*
X109292182Y-114885050D01*
X109300946Y-114889516D01*
X109351742Y-114937491D01*
X109368536Y-115005312D01*
X109345998Y-115071447D01*
X109300946Y-115110484D01*
X109292182Y-115114949D01*
X109120213Y-115239890D01*
X108969890Y-115390213D01*
X108844951Y-115562179D01*
X108748444Y-115751585D01*
X108682753Y-115953760D01*
X108649500Y-116163713D01*
X108649500Y-116376286D01*
X108682753Y-116586239D01*
X108748444Y-116788414D01*
X108844951Y-116977820D01*
X108969890Y-117149786D01*
X109120213Y-117300109D01*
X109292182Y-117425050D01*
X109300946Y-117429516D01*
X109351742Y-117477491D01*
X109368536Y-117545312D01*
X109345998Y-117611447D01*
X109300946Y-117650484D01*
X109292182Y-117654949D01*
X109120213Y-117779890D01*
X108969890Y-117930213D01*
X108844951Y-118102179D01*
X108748444Y-118291585D01*
X108682753Y-118493760D01*
X108649500Y-118703713D01*
X108649500Y-118916286D01*
X108682753Y-119126239D01*
X108748444Y-119328414D01*
X108844951Y-119517820D01*
X108969890Y-119689786D01*
X109120213Y-119840109D01*
X109292182Y-119965050D01*
X109300946Y-119969516D01*
X109351742Y-120017491D01*
X109368536Y-120085312D01*
X109345998Y-120151447D01*
X109300946Y-120190484D01*
X109292182Y-120194949D01*
X109120213Y-120319890D01*
X108969890Y-120470213D01*
X108844951Y-120642179D01*
X108748444Y-120831585D01*
X108682753Y-121033760D01*
X108649500Y-121243713D01*
X108649500Y-121456286D01*
X108682753Y-121666239D01*
X108748444Y-121868414D01*
X108844951Y-122057820D01*
X108969890Y-122229786D01*
X109120213Y-122380109D01*
X109292179Y-122505048D01*
X109292181Y-122505049D01*
X109292184Y-122505051D01*
X109481588Y-122601557D01*
X109683757Y-122667246D01*
X109893713Y-122700500D01*
X109893714Y-122700500D01*
X110106286Y-122700500D01*
X110106287Y-122700500D01*
X110316243Y-122667246D01*
X110518412Y-122601557D01*
X110707816Y-122505051D01*
X110729789Y-122489086D01*
X110879786Y-122380109D01*
X110879788Y-122380106D01*
X110879792Y-122380104D01*
X110973077Y-122286819D01*
X111034400Y-122253334D01*
X111060758Y-122250500D01*
X118939242Y-122250500D01*
X119006281Y-122270185D01*
X119026923Y-122286819D01*
X119120213Y-122380109D01*
X119292179Y-122505048D01*
X119292181Y-122505049D01*
X119292184Y-122505051D01*
X119481588Y-122601557D01*
X119683757Y-122667246D01*
X119893713Y-122700500D01*
X119893714Y-122700500D01*
X120106286Y-122700500D01*
X120106287Y-122700500D01*
X120316243Y-122667246D01*
X120518412Y-122601557D01*
X120707816Y-122505051D01*
X120729789Y-122489086D01*
X120879786Y-122380109D01*
X120879788Y-122380106D01*
X120879792Y-122380104D01*
X121030104Y-122229792D01*
X121030106Y-122229788D01*
X121030109Y-122229786D01*
X121155048Y-122057820D01*
X121155047Y-122057820D01*
X121155051Y-122057816D01*
X121251557Y-121868412D01*
X121317246Y-121666243D01*
X121350500Y-121456287D01*
X121350500Y-121243713D01*
X121317246Y-121033757D01*
X121251557Y-120831588D01*
X121155051Y-120642184D01*
X121155049Y-120642181D01*
X121155048Y-120642179D01*
X121030109Y-120470213D01*
X120879786Y-120319890D01*
X120707820Y-120194951D01*
X120707115Y-120194591D01*
X120699054Y-120190485D01*
X120648259Y-120142512D01*
X120631463Y-120074692D01*
X120653999Y-120008556D01*
X120699054Y-119969515D01*
X120707816Y-119965051D01*
X120729789Y-119949086D01*
X120879786Y-119840109D01*
X120879788Y-119840106D01*
X120879792Y-119840104D01*
X121030104Y-119689792D01*
X121030106Y-119689788D01*
X121030109Y-119689786D01*
X121155048Y-119517820D01*
X121155047Y-119517820D01*
X121155051Y-119517816D01*
X121251557Y-119328412D01*
X121317246Y-119126243D01*
X121350500Y-118916287D01*
X121350500Y-118703713D01*
X121317246Y-118493757D01*
X121251557Y-118291588D01*
X121155051Y-118102184D01*
X121155049Y-118102181D01*
X121155048Y-118102179D01*
X121030109Y-117930213D01*
X120879786Y-117779890D01*
X120707820Y-117654951D01*
X120707115Y-117654591D01*
X120699054Y-117650485D01*
X120648259Y-117602512D01*
X120631463Y-117534692D01*
X120653999Y-117468556D01*
X120699054Y-117429515D01*
X120707816Y-117425051D01*
X120729789Y-117409086D01*
X120879786Y-117300109D01*
X120879788Y-117300106D01*
X120879792Y-117300104D01*
X120973077Y-117206819D01*
X121000004Y-117192115D01*
X121025823Y-117175523D01*
X121032023Y-117174631D01*
X121034400Y-117173334D01*
X121060758Y-117170500D01*
X121145638Y-117170500D01*
X121212677Y-117190185D01*
X121233319Y-117206819D01*
X122725960Y-118699460D01*
X122725964Y-118699463D01*
X122873446Y-118798008D01*
X122873452Y-118798011D01*
X122873453Y-118798012D01*
X123037334Y-118865894D01*
X123211303Y-118900498D01*
X123211307Y-118900499D01*
X123211308Y-118900499D01*
X123388692Y-118900499D01*
X123388693Y-118900498D01*
X123562666Y-118865894D01*
X123726546Y-118798012D01*
X123874035Y-118699463D01*
X123999463Y-118574035D01*
X124098012Y-118426546D01*
X124165894Y-118262666D01*
X124200499Y-118088691D01*
X124200499Y-117911308D01*
X124165894Y-117737334D01*
X124098012Y-117573453D01*
X124098011Y-117573452D01*
X124098008Y-117573446D01*
X123999463Y-117425964D01*
X123999460Y-117425960D01*
X122144038Y-115570537D01*
X122144034Y-115570533D01*
X122089622Y-115534178D01*
X122089616Y-115534175D01*
X122084959Y-115531063D01*
X121996547Y-115471987D01*
X121914606Y-115438046D01*
X121832666Y-115404105D01*
X121832658Y-115404103D01*
X121658696Y-115369500D01*
X121658692Y-115369500D01*
X121658691Y-115369500D01*
X121060758Y-115369500D01*
X120993719Y-115349815D01*
X120973077Y-115333181D01*
X120879786Y-115239890D01*
X120707820Y-115114951D01*
X120707115Y-115114591D01*
X120699054Y-115110485D01*
X120648259Y-115062512D01*
X120631463Y-114994692D01*
X120653999Y-114928556D01*
X120699054Y-114889515D01*
X120707816Y-114885051D01*
X120729789Y-114869086D01*
X120879786Y-114760109D01*
X120879788Y-114760106D01*
X120879792Y-114760104D01*
X121030104Y-114609792D01*
X121030106Y-114609788D01*
X121030109Y-114609786D01*
X121155048Y-114437820D01*
X121155047Y-114437820D01*
X121155051Y-114437816D01*
X121251557Y-114248412D01*
X121317246Y-114046243D01*
X121350500Y-113836287D01*
X121350500Y-113623713D01*
X121317246Y-113413757D01*
X121251557Y-113211588D01*
X121155051Y-113022184D01*
X121155049Y-113022181D01*
X121155048Y-113022179D01*
X121030109Y-112850213D01*
X120879786Y-112699890D01*
X120707817Y-112574949D01*
X120698504Y-112570204D01*
X120647707Y-112522230D01*
X120630912Y-112454409D01*
X120653449Y-112388274D01*
X120698507Y-112349232D01*
X120707555Y-112344622D01*
X120761716Y-112305270D01*
X120761717Y-112305270D01*
X120129408Y-111672962D01*
X120192993Y-111655925D01*
X120307007Y-111590099D01*
X120400099Y-111497007D01*
X120465925Y-111382993D01*
X120482962Y-111319409D01*
X121115270Y-111951717D01*
X121115270Y-111951716D01*
X121154622Y-111897554D01*
X121251095Y-111708217D01*
X121316757Y-111506130D01*
X121316757Y-111506127D01*
X121350000Y-111296246D01*
X121350000Y-111083753D01*
X121316757Y-110873872D01*
X121316757Y-110873869D01*
X121251095Y-110671782D01*
X121154624Y-110482449D01*
X121115270Y-110428282D01*
X121115269Y-110428282D01*
X120482962Y-111060590D01*
X120465925Y-110997007D01*
X120400099Y-110882993D01*
X120307007Y-110789901D01*
X120192993Y-110724075D01*
X120129409Y-110707037D01*
X120799627Y-110036818D01*
X120860950Y-110003333D01*
X120887307Y-110000499D01*
X120897872Y-110000499D01*
X120957483Y-109994091D01*
X121092331Y-109943796D01*
X121207546Y-109857546D01*
X121293796Y-109742331D01*
X121344091Y-109607483D01*
X121350500Y-109547873D01*
X121350499Y-107752128D01*
X121344091Y-107692517D01*
X121335257Y-107668833D01*
X121293797Y-107557671D01*
X121293793Y-107557664D01*
X121207547Y-107442455D01*
X121207544Y-107442452D01*
X121092335Y-107356206D01*
X121092328Y-107356202D01*
X120957482Y-107305908D01*
X120957483Y-107305908D01*
X120897883Y-107299501D01*
X120897881Y-107299500D01*
X120897873Y-107299500D01*
X120897864Y-107299500D01*
X119102129Y-107299500D01*
X119102123Y-107299501D01*
X119042516Y-107305908D01*
X118907671Y-107356202D01*
X118907664Y-107356206D01*
X118792455Y-107442452D01*
X118792452Y-107442455D01*
X118706206Y-107557664D01*
X118706202Y-107557671D01*
X118664742Y-107668833D01*
X118622871Y-107724767D01*
X118557407Y-107749184D01*
X118548560Y-107749500D01*
X111451440Y-107749500D01*
X111384401Y-107729815D01*
X111338646Y-107677011D01*
X111335258Y-107668833D01*
X111293797Y-107557671D01*
X111293793Y-107557664D01*
X111207547Y-107442455D01*
X111207544Y-107442452D01*
X111092335Y-107356206D01*
X111092328Y-107356202D01*
X110957482Y-107305908D01*
X110957483Y-107305908D01*
X110897883Y-107299501D01*
X110897881Y-107299500D01*
X110897873Y-107299500D01*
X110897864Y-107299500D01*
X109102129Y-107299500D01*
X109102123Y-107299501D01*
X109042516Y-107305908D01*
X108907671Y-107356202D01*
X108907664Y-107356206D01*
X108792455Y-107442452D01*
X108792452Y-107442455D01*
X108706206Y-107557664D01*
X108706202Y-107557671D01*
X108655908Y-107692517D01*
X108649816Y-107749184D01*
X108649501Y-107752123D01*
X108649500Y-107752135D01*
X100500500Y-107752135D01*
X100500500Y-100624500D01*
X100520185Y-100557461D01*
X100572989Y-100511706D01*
X100624500Y-100500500D01*
X129375500Y-100500500D01*
X129442539Y-100520185D01*
G37*
%TD.AperFunction*%
%TD*%
M02*
